# xmcd
#
# Track frame offsets:
#	150
#	26710
#	59137
#	84160
#	108862
#	138762
#	161537
#	179412
#	202480
#	224532
#	246717
#	269272
#	294105
#
# Disc length: 4262 seconds
# Revision: 0
# Processed by: cddbd v1.5.2PL0 Copyright (c) Steve Scherf et al.
# Submitted via: dBpowerAMP V12.0
#
DISCID=c810a40d
DTITLE=MC Hammer - Too Legit To Quit
DYEAR=1991
DGENRE=Rap
TTITLE0=This Is the Way We Roll
TTITLE1=Brothers Hang On
TTITLE2=Too Legit To Quit
TTITLE3=Living In A World Like This
TTITLE4=Tell Me (Why Can't We Live Together)
TTITLE5=Releasing Some Pressure
TTITLE6=Find Yourself A Friend
TTITLE7=Count It Off
TTITLE8=Good To Go
TTITLE9=Lovehold
TTITLE10=Street Soldiers
TTITLE11=Do Not Pass Me By
TTITLE12=Gaining Momentum
EXTD=
EXTT0=
EXTT1=
EXTT2=
EXTT3=
EXTT4=
EXTT5=
EXTT6=
EXTT7=
EXTT8=
EXTT9=
EXTT10=
EXTT11=
EXTT12=
PLAYORDER=
